# xmcd CD database file
#
# Track frame offsets:
#	150
#	16740
#	31130
#	47810
#	65800
#	80935
#	95310
#	113890
#	129375
#	144565
#	161545
#	178045
#	196995
#
# Disc length: 2897 seconds
#
# Revision: 0
# Processed by: cddbd v1.5.2PL0 Copyright (c) Steve Scherf et al.
# Submitted via: CDex 1.51
#
DISCID=af0b4f0d
DTITLE=Trace Adkins - American Man Greatest Hits Vol.2
DYEAR=2007
DGENRE=Country
TTITLE0=Ladies Love Country Boys
TTITLE1=I Got My Game On
TTITLE2=You're Gonna Miss This
TTITLE3=Honky Tonk Badonkadonk (Album Version)
TTITLE4=Hot Mama - American Man
TTITLE5=Rough and Ready
TTITLE6=Arlington
TTITLE7=Songs About Me
TTITLE8=Chrome
TTITLE9=I Wanna Feel Something
TTITLE10=Swing
TTITLE11=American Man
TTITLE12=I Came Here To Live
EXTD=YEAR: 2007
EXTT0=
EXTT1=
EXTT2=
EXTT3=
EXTT4=
EXTT5=
EXTT6=
EXTT7=
EXTT8=
EXTT9=
EXTT10=
EXTT11=
EXTT12=
PLAYORDER=
